<svg width="32" height="32" viewBox="0 0 32 32" fill="none" xmlns="http://www.w3.org/2000/svg">
<path d="M17.2321 18.332V17.774C17.2321 17.0935 16.6806 16.542 16.0006 16.542C15.3201 16.542 14.7686 17.0935 14.7686 17.774V18.332C14.7686 19.0125 15.3201 19.564 16.0006 19.564C16.6801 19.564 17.2321 19.0125 17.2321 18.332Z" fill="#F0145A"/>
<path d="M18.0778 19.0136C17.8048 19.9071 16.9823 20.5631 16.0013 20.5631C15.0198 20.5631 14.1973 19.9071 13.9243 19.0136H5.43984C4.90434 19.0136 4.39834 18.8891 3.94434 18.6731V24.3066C3.94434 25.4066 4.84434 26.3066 5.94434 26.3066H26.0573C27.1573 26.3066 28.0573 25.4066 28.0573 24.3066V18.6736C27.6028 18.8896 27.0973 19.0141 26.5618 19.0141H18.0778V19.0136Z" fill="#F0145A"/>
<path d="M26.478 8.8976H21.6775C21.3875 7.0846 19.817 5.6936 17.9235 5.6936H14.077C12.1835 5.6936 10.6135 7.0846 10.323 8.8976H5.52295C4.37695 8.8976 3.43945 9.7976 3.43945 10.8976V15.5141C3.43945 16.6186 4.33495 17.5141 5.43945 17.5141H13.8295C13.858 16.9386 14.105 16.4216 14.4955 16.0476C14.5075 16.0361 14.5215 16.0271 14.534 16.0161C14.6205 15.9366 14.7105 15.8616 14.809 15.7966C14.844 15.7731 14.884 15.7571 14.9205 15.7361C15.0015 15.6896 15.0815 15.6411 15.169 15.6051C15.2375 15.5766 15.3115 15.5601 15.3835 15.5386C15.4455 15.5201 15.5045 15.4956 15.569 15.4826C15.7085 15.4541 15.853 15.4391 16.0005 15.4391C16.1485 15.4391 16.2925 15.4546 16.432 15.4826C16.496 15.4956 16.555 15.5201 16.617 15.5386C16.689 15.5601 16.763 15.5766 16.8315 15.6056C16.9185 15.6416 16.998 15.6896 17.079 15.7361C17.116 15.7576 17.156 15.7736 17.1915 15.7971C17.29 15.8616 17.3795 15.9366 17.466 16.0161C17.4785 16.0276 17.493 16.0366 17.505 16.0486C17.896 16.4226 18.1425 16.9396 18.171 17.5151H26.561C27.6655 17.5151 28.561 16.6196 28.561 15.5151V10.8986C28.5615 9.7976 27.624 8.8976 26.478 8.8976ZM12.2485 8.8976C12.5035 8.1271 13.222 7.5656 14.077 7.5656H17.9235C18.7785 7.5656 19.497 8.1271 19.752 8.8976H12.2485Z" fill="#F0145A"/>
</svg>
