<svg width="32" height="32" viewBox="0 0 32 32" fill="none" xmlns="http://www.w3.org/2000/svg">
<path d="M16.0966 3.55298C9.25209 3.55298 3.68359 9.12148 3.68359 15.966C3.68359 22.811 9.25209 28.38 16.0966 28.38C22.9411 28.38 28.5096 22.811 28.5096 15.966C28.5101 9.12148 22.9416 3.55298 16.0966 3.55298ZM22.9551 15.0585V15.059L19.3616 17.659L20.7456 21.889C20.7676 21.955 20.7791 22.0255 20.7791 22.0975C20.7791 22.467 20.4801 22.767 20.1106 22.767C19.9636 22.767 19.8286 22.72 19.7186 22.6405L16.0971 20.021L12.4756 22.6405C12.3656 22.72 12.2306 22.767 12.0841 22.767C11.7141 22.767 11.4146 22.4675 11.4146 22.0975C11.4146 22.025 11.4266 21.955 11.4486 21.889L12.8331 17.659L9.23959 15.059V15.0585C9.07159 14.9375 8.96259 14.74 8.96259 14.517C8.96259 14.1475 9.26159 13.8485 9.63159 13.8485H14.0801L15.4576 9.63798C15.5416 9.36448 15.7961 9.16548 16.0976 9.16548C16.3986 9.16548 16.6536 9.36448 16.7371 9.63798L18.1146 13.8485H22.5631C22.9326 13.8485 23.2321 14.1475 23.2321 14.517C23.2316 14.74 23.1226 14.9375 22.9551 15.0585Z" fill="#F0145A"/>
</svg>
